<svg width="32" height="32" viewBox="0 0 32 32" fill="none" xmlns="http://www.w3.org/2000/svg">
  <rect width="32" height="32" rx="6" fill="white"/>
  <!-- scale flames from 0 0 60 84 to 32x32 -->
  <g transform="translate(3,2) scale(0.433)">
    <path fill-rule="evenodd" clip-rule="evenodd" d="M30.8476 72.1648C39.1786 71.7416 42.7899 69.255 44.752 61.9327L58.2852 4.48657C50.0656 5.2061 46.258 7.67156 44.3384 14.9198L30.8423 72.1648H30.8476Z" fill="#E27F62"/>
    <path fill-rule="evenodd" clip-rule="evenodd" d="M15.5483 72.1436C30.4708 71.3818 29.3943 61.266 32.486 48.944L39.8412 17.163C25.0936 17.5968 26.08 27.4851 22.9141 40.2409L15.543 72.1489L15.5483 72.1436Z" fill="#D54F37"/>
    <path fill-rule="evenodd" clip-rule="evenodd" d="M0 72.1225C13.3158 71.9956 13.0984 64.5145 15.8188 53.6951C18.1415 44.4629 20.1566 35.3259 22.3308 26.0408C9.31203 26.845 9.02036 33.2943 6.48024 44.4206C4.36435 53.674 1.90907 62.6522 0 72.1172L0 72.1225Z" fill="#CE161C"/>
  </g>
</svg>
