<svg width="300" height="84" viewBox="0 0 300 84" fill="none" xmlns="http://www.w3.org/2000/svg">
<g clip-path="url(#clip0_302_2)">
<path fill-rule="evenodd" clip-rule="evenodd" d="M30.8476 72.1648C39.1786 71.7416 42.7899 69.255 44.752 61.9327L58.2852 4.48657C50.0656 5.2061 46.258 7.67156 44.3384 14.9198L30.8423 72.1648H30.8476Z" fill="#E27F62"/>
<path fill-rule="evenodd" clip-rule="evenodd" d="M15.5483 72.1436C30.4708 71.3818 29.3943 61.266 32.486 48.944L39.8412 17.163C25.0936 17.5968 26.08 27.4851 22.9141 40.2409L15.543 72.1489L15.5483 72.1436Z" fill="#D54F37"/>
<path fill-rule="evenodd" clip-rule="evenodd" d="M0 72.1225C13.3158 71.9956 13.0984 64.5145 15.8188 53.6951C18.1415 44.4629 20.1566 35.3259 22.3308 26.0408C9.31203 26.845 9.02036 33.2943 6.48024 44.4206C4.36435 53.674 1.90907 62.6522 0 72.1172L0 72.1225Z" fill="#CE161C"/>
<path d="M77.1265 7.16362C77.3493 6.12136 77.7417 5.37008 78.3038 4.9045C78.8659 4.44422 79.672 4.21143 80.7167 4.21143H81.3212L81.1409 5.11613C81.5651 4.7352 81.9947 4.49183 82.4401 4.38073C82.8803 4.26962 83.4583 4.21672 84.1583 4.21672H86.1204L85.9401 5.12142C86.3643 4.74049 86.7939 4.49712 87.2393 4.38602C87.6795 4.27491 88.2575 4.22201 88.9575 4.22201H90.9196L87.9605 18.1312C87.7378 19.1734 87.3454 19.93 86.7833 20.3903C86.2211 20.8506 85.4151 21.0834 84.3704 21.0834H83.7659L86.7514 7.08426C86.8522 6.64513 86.6931 6.42293 86.2689 6.42293C85.9666 6.42293 85.7704 6.51816 85.6802 6.70862C85.5901 6.89909 85.5318 7.02606 85.5158 7.08426L83.1613 18.1312C82.9386 19.1734 82.5462 19.93 81.9841 20.3903C81.422 20.8506 80.6159 21.0834 79.5712 21.0834H78.9667L81.9522 7.08426C82.053 6.64513 81.8939 6.42293 81.4697 6.42293C81.1674 6.42293 80.9712 6.51816 80.8811 6.70862C80.7909 6.89909 80.7326 7.02606 80.7167 7.08426L78.3621 18.1312C78.1394 19.1734 77.747 19.93 77.1849 20.3903C76.6228 20.8506 75.8167 21.0834 74.772 21.0834H74.1675L77.1265 7.1742V7.16362Z" fill="#A3A3A3"/>
<path d="M98.4284 18.1259C98.2057 19.1681 97.8133 19.9247 97.2512 20.385C96.689 20.8453 95.883 21.078 94.8383 21.078H89.4346L92.3936 7.16887C92.6164 6.12661 93.0088 5.37533 93.5709 4.90975C94.133 4.44946 94.9391 4.21667 95.9838 4.21667H101.387L100.062 10.5073C99.839 11.5495 99.4466 12.3061 98.8845 12.7664C98.3224 13.2267 97.5163 13.4595 96.4716 13.4595H94.6315L93.5762 18.3375C93.5338 18.4962 93.5656 18.6285 93.6664 18.729C93.7671 18.8295 93.9156 18.8771 94.1171 18.8771C94.1595 18.8771 94.2656 18.8507 94.4512 18.8031C94.6315 18.7554 94.7535 18.5967 94.8118 18.3375L94.9921 17.5227C95.2148 16.4805 95.6019 15.7292 96.1534 15.2636C96.705 14.8033 97.5163 14.5705 98.5822 14.5705H99.1867L98.4337 18.1206L98.4284 18.1259ZM96.3178 11.2639L97.2246 7.04718C97.2671 6.84614 97.2406 6.69271 97.1504 6.58161C97.0603 6.4705 96.933 6.41759 96.7739 6.41759C96.6148 6.41759 96.4504 6.46521 96.2913 6.56573C96.1322 6.66626 96.0315 6.82498 95.9891 7.04718L95.0822 11.2639H96.3178Z" fill="#A3A3A3"/>
<path d="M102.867 7.16362C103.09 6.12136 103.482 5.37008 104.045 4.9045C104.607 4.44422 105.413 4.21143 106.457 4.21143H111.861L108.902 18.1206C108.679 19.1629 108.287 19.9194 107.725 20.3797C107.163 20.84 106.357 21.0728 105.312 21.0728H104.707L107.693 7.01548C107.751 6.61339 107.592 6.41235 107.21 6.41235C107.03 6.41235 106.866 6.48112 106.728 6.62397C106.585 6.76682 106.495 6.8938 106.457 7.01548L104.103 18.1259C103.88 19.1682 103.488 19.9247 102.926 20.385C102.363 20.8453 101.557 21.0781 100.513 21.0781H99.9082L102.867 7.16891V7.16362Z" fill="#A3A3A3"/>
<path d="M118.527 18.1259C118.468 18.7291 118.341 19.2211 118.15 19.602C117.959 19.983 117.705 20.2845 117.381 20.5067C117.058 20.7289 116.692 20.8771 116.278 20.9564C115.865 21.0358 115.419 21.0781 114.937 21.0781H114.576L116.114 10.3328H115.992L113.881 18.1312C113.759 18.5703 113.627 18.9724 113.489 19.3375C113.346 19.6973 113.144 20.0094 112.884 20.2687C112.625 20.5279 112.29 20.7289 111.887 20.8718C111.484 21.0146 110.954 21.0834 110.286 21.0834H109.321L114.21 7.17424C114.348 6.73512 114.518 6.33302 114.709 5.96797C114.9 5.6082 115.133 5.29605 115.403 5.03681C115.674 4.77757 116.003 4.57652 116.384 4.43367C116.766 4.29612 117.238 4.22205 117.8 4.22205H119.699L118.521 18.1312L118.527 18.1259Z" fill="#A3A3A3"/>
<path d="M122.059 7.16362C122.281 6.12136 122.674 5.37008 123.236 4.9045C123.798 4.44422 124.604 4.21143 125.649 4.21143H131.053L128.093 18.1206C127.871 19.1629 127.478 19.9194 126.916 20.3797C126.354 20.84 125.548 21.0728 124.503 21.0728H119.1L122.059 7.16362ZM123.268 18.274C123.209 18.5756 123.262 18.7502 123.432 18.8031C123.602 18.8507 123.719 18.8772 123.777 18.8772C123.835 18.8772 123.957 18.8454 124.137 18.7872C124.318 18.729 124.44 18.5544 124.498 18.274L126.884 7.04723C126.927 6.84618 126.9 6.69275 126.81 6.58165C126.72 6.47054 126.593 6.41764 126.434 6.41764C126.275 6.41764 126.11 6.46525 125.951 6.56577C125.792 6.6663 125.691 6.82502 125.649 7.04723L123.262 18.274H123.268Z" fill="#A3A3A3"/>
<path d="M69.8455 33.0297C70.3228 30.7759 71.1712 29.1516 72.3856 28.1517C73.6 27.157 75.3394 26.6544 77.5984 26.6544H92.3248L83.9832 65.7948C83.506 68.0486 82.6575 69.6729 81.4431 70.6728C80.2287 71.6727 78.4893 72.1701 76.2303 72.1701H73.4939L82.0954 31.6647H79.2265L71.9932 65.7948C71.5159 68.0486 70.6674 69.6729 69.4531 70.6728C68.2387 71.6727 66.4993 72.1701 64.2402 72.1701H61.5039L69.8455 33.0297Z" fill="black"/>
<path d="M93.9527 42.1297C94.4299 39.8758 95.2784 38.2516 96.4928 37.2517C97.7072 36.257 99.4466 35.7544 101.706 35.7544H103.01L102.618 37.7066C103.53 36.8813 104.463 36.3522 105.418 36.1142C106.372 35.8761 107.613 35.7544 109.13 35.7544H113.367L106.982 65.7895C106.505 68.0434 105.656 69.6676 104.442 70.6675C103.228 71.6675 101.488 72.1648 99.2291 72.1648H95.2519L94.0799 77.6248C93.6027 79.8786 92.7648 81.5028 91.5716 82.5028C90.3785 83.4974 88.6285 84 86.327 84H85.0225L93.9474 42.1297H93.9527ZM96.5617 66.0541C96.5193 66.144 96.5193 66.3874 96.5617 66.8001C96.6042 67.2127 96.9542 67.4191 97.6064 67.4191C98.3011 67.4191 98.7254 67.2445 98.8791 66.9006C99.0329 66.5567 99.1496 66.271 99.2397 66.0541L104.389 41.9339C104.606 40.9816 104.256 40.5054 103.344 40.5054C102.692 40.5054 102.268 40.7118 102.072 41.1244C101.875 41.5371 101.753 41.8069 101.711 41.9392L96.5617 66.0594V66.0541Z" fill="black"/>
<path d="M116.564 42.1297C117.042 39.8758 117.89 38.2516 119.105 37.2517C120.319 36.257 122.058 35.7544 124.317 35.7544H135.984L129.599 65.7895C129.122 68.0434 128.273 69.6676 127.059 70.6675C125.845 71.6675 124.105 72.1648 121.846 72.1648H110.18L116.564 42.1297ZM119.174 66.1176C119.041 66.7683 119.163 67.1492 119.534 67.2551C119.905 67.3662 120.155 67.4191 120.282 67.4191C120.409 67.4191 120.674 67.3556 121.061 67.2233C121.454 67.091 121.714 66.726 121.841 66.1176L126.99 41.8651C127.075 41.4313 127.022 41.098 126.826 40.8599C126.63 40.6218 126.359 40.5001 126.009 40.5001C125.659 40.5001 125.314 40.6112 124.964 40.8229C124.614 41.0398 124.397 41.389 124.312 41.8651L119.163 66.1176H119.174Z" fill="black"/>
<path d="M139.177 42.1297C139.654 39.8758 140.502 38.2516 141.717 37.2517C142.931 36.257 144.67 35.7544 146.93 35.7544H148.234L144.909 51.4889H145.233L148.881 42.1297C149.273 41.1773 149.661 40.3097 150.053 39.5266C150.445 38.7436 150.933 38.077 151.517 37.5109C152.105 36.9501 152.8 36.5163 153.601 36.2094C154.401 35.9078 155.414 35.7544 156.629 35.7544H159.238L151.612 53.3088L151.936 65.7895C151.978 67.5672 151.368 69.0962 150.111 70.3713C148.849 71.6516 146.983 72.2442 144.506 72.1595H144.114L144.437 54.9966H144.114L141.833 65.7895C141.356 68.0434 140.508 69.6676 139.293 70.6675C138.079 71.6675 136.339 72.1648 134.08 72.1648H132.776L139.161 42.1297H139.177Z" fill="black"/>
<path d="M179.124 42.0661C178.906 43.0184 178.625 43.8861 178.275 44.6638C177.925 45.4416 177.459 46.1188 176.875 46.6796C176.287 47.2457 175.55 47.6795 174.659 47.9811C173.768 48.2827 172.691 48.4361 171.435 48.4361H170.13L171.498 41.8704C171.583 41.4365 171.53 41.1032 171.334 40.8651C171.138 40.6271 170.867 40.5054 170.517 40.5054C170.167 40.5054 169.822 40.6165 169.472 40.8281C169.122 41.045 168.905 41.3942 168.82 41.8704L163.671 66.1228C163.538 66.7312 163.639 67.0963 163.963 67.2286C164.286 67.3608 164.557 67.4243 164.779 67.4243C164.912 67.4243 165.172 67.3608 165.559 67.2286C165.951 67.0963 166.211 66.7312 166.338 66.1228L166.662 64.4986C167.139 62.2448 167.988 60.6205 169.202 59.6206C170.416 58.6259 172.156 58.1233 174.415 58.1233H175.719L174.091 65.7948C173.614 68.0486 172.766 69.6729 171.551 70.6728C170.337 71.6727 168.597 72.1701 166.338 72.1701H154.672L161.057 42.1349C161.534 39.8811 162.382 38.2568 163.597 37.2569C164.811 36.2623 166.551 35.7596 168.81 35.7596H180.476L179.108 42.0661H179.124Z" fill="black"/>
<path d="M196.719 65.7948C196.242 68.0487 195.394 69.6729 194.179 70.6728C192.965 71.6728 191.225 72.1701 188.966 72.1701H187.662L188.118 69.9586C187.508 70.7839 186.803 71.3553 186.002 71.6833C185.196 72.0061 184.342 72.1701 183.43 72.1701H177.305L183.69 42.1349C184.167 39.8811 185.016 38.2569 186.23 37.2569C187.444 36.2623 189.184 35.7597 191.443 35.7597H192.747L186.294 66.0541C186.076 66.9641 186.448 67.4191 187.402 67.4191C188.012 67.4191 188.399 67.2656 188.574 66.9641C188.749 66.6625 188.876 66.3556 188.966 66.0541L194.047 42.1297C194.524 39.8758 195.372 38.2516 196.587 37.2517C197.801 36.257 199.541 35.7544 201.8 35.7544H203.104L196.719 65.7895V65.7948Z" fill="black"/>
<path d="M211.769 31.6647H205.644C205.994 30.0193 206.678 28.7707 207.696 27.9242C208.714 27.0777 209.902 26.6544 211.249 26.6544H228.129C227.826 28.2998 227.164 29.5484 226.14 30.3949C225.117 31.2414 223.913 31.6647 222.523 31.6647H220.895L213.662 65.7948C213.185 68.0486 212.336 69.6729 211.122 70.6728C209.908 71.6727 208.168 72.1701 205.909 72.1701H203.173L211.774 31.6647H211.769Z" fill="black"/>
<path d="M239.074 65.7948C238.597 68.0486 237.749 69.6729 236.534 70.6728C235.32 71.6727 233.58 72.1701 231.321 72.1701H219.655L226.04 42.1349C226.517 39.8811 227.365 38.2568 228.58 37.2569C229.794 36.2623 231.533 35.7596 233.793 35.7596H245.459L242.59 49.3461C242.113 51.5999 241.264 53.2242 240.05 54.2241C238.836 55.224 237.096 55.7214 234.837 55.7214H230.86L228.58 66.2551C228.49 66.6043 228.558 66.8847 228.776 67.1016C228.993 67.3185 229.317 67.4243 229.752 67.4243C229.837 67.4243 230.075 67.3714 230.468 67.2603C230.86 67.1545 231.12 66.8159 231.247 66.2498L231.64 64.4933C232.117 62.2395 232.955 60.6152 234.148 59.6153C235.341 58.6206 237.091 58.118 239.392 58.118H240.697L239.069 65.7895L239.074 65.7948ZM234.514 50.9703L236.471 41.8704C236.555 41.4365 236.502 41.1032 236.306 40.8651C236.11 40.6271 235.839 40.5054 235.489 40.5054C235.139 40.5054 234.795 40.6165 234.445 40.8281C234.095 41.045 233.877 41.3942 233.793 41.8704L231.836 50.9703H234.508H234.514Z" fill="black"/>
<path d="M248.651 42.1297C249.129 39.8758 249.977 38.2516 251.192 37.2517C252.406 36.257 254.145 35.7544 256.404 35.7544H257.709L257.316 37.7066C258.229 36.8813 259.162 36.3522 260.116 36.1142C261.071 35.8761 262.312 35.7544 263.829 35.7544H268.066L261.681 65.7895C261.204 68.0434 260.355 69.6676 259.141 70.6675C257.926 71.6675 256.187 72.1648 253.928 72.1648H249.951L248.779 77.6248C248.301 79.8786 247.464 81.5028 246.27 82.5028C245.077 83.4974 243.327 84 241.026 84H239.721L248.651 42.1297ZM251.26 66.0541C251.218 66.144 251.218 66.3874 251.26 66.8001C251.303 67.2127 251.653 67.4191 252.305 67.4191C253 67.4191 253.424 67.2445 253.578 66.9006C253.732 66.5567 253.848 66.271 253.938 66.0541L259.088 41.9339C259.305 40.9816 258.955 40.5054 258.043 40.5054C257.391 40.5054 256.966 40.7118 256.77 41.1244C256.574 41.5371 256.452 41.8069 256.41 41.9392L251.26 66.0594V66.0541Z" fill="black"/>
<path d="M288.142 42.1297C288.535 41.1773 288.922 40.3097 289.314 39.5266C289.707 38.7436 290.174 38.077 290.714 37.5109C291.255 36.9501 291.939 36.5163 292.767 36.2094C293.589 35.9078 294.633 35.7544 295.895 35.7544H300L293.615 65.7895C293.138 68.0434 292.289 69.6676 291.075 70.6675C289.861 71.6675 288.121 72.1648 285.862 72.1648H284.558L288.402 54.0231H288.079L282.733 67.3503C282.474 67.9587 282.203 68.5513 281.917 69.1385C281.636 69.7258 281.265 70.2443 280.809 70.6993C280.352 71.1543 279.764 71.514 279.048 71.7733C278.332 72.0325 277.43 72.1648 276.343 72.1648L276.736 54.0231H276.407L273.931 65.7895C273.453 68.0434 272.605 69.6676 271.39 70.6675C270.176 71.6675 268.437 72.1648 266.178 72.1648H264.873L271.258 42.1297C271.735 39.8758 272.584 38.2516 273.798 37.2517C275.012 36.257 276.752 35.7544 279.011 35.7544H281.747L281.683 57.3403L288.137 42.1297H288.142Z" fill="black"/>
<path d="M148.266 0.301607C148.123 0.962941 147.81 1.4973 147.317 1.89939C146.823 2.30148 146.288 2.50253 145.705 2.50253H143.923C143.62 2.50253 143.376 2.54485 143.186 2.64008C142.995 2.73003 142.841 2.84113 142.735 2.9734C142.623 3.10566 142.544 3.2538 142.491 3.4231C142.438 3.59241 142.406 3.76171 142.385 3.92043L142.141 5.1267C142.565 4.74577 142.995 4.5024 143.44 4.3913C143.88 4.28019 144.458 4.22729 145.158 4.22729H147.12L144.161 18.1365C143.939 19.1787 143.546 19.9353 142.984 20.3956C142.422 20.8559 141.616 21.0887 140.571 21.0887H135.167L139.028 2.96282C139.251 1.92055 139.643 1.16928 140.205 0.703698C140.767 0.24341 141.573 0.0106201 142.618 0.0106201H148.319L148.261 0.312188L148.266 0.301607ZM139.336 18.274C139.235 18.6761 139.405 18.8772 139.85 18.8772C140.131 18.8772 140.317 18.7925 140.407 18.6232C140.497 18.4539 140.55 18.3375 140.571 18.2793L142.958 7.07896C143.058 6.63983 142.899 6.41762 142.475 6.41762C142.173 6.41762 141.977 6.50757 141.886 6.68745C141.796 6.86733 141.738 7.01018 141.722 7.1107L139.336 18.2793V18.274Z" fill="#A3A3A3"/>
<path d="M153.786 18.1259C153.728 18.7291 153.6 19.2211 153.41 19.602C153.219 19.983 152.964 20.2845 152.641 20.5067C152.317 20.7289 151.951 20.8771 151.538 20.9564C151.124 21.0358 150.678 21.0781 150.196 21.0781H149.835L151.373 10.3328H151.251L149.141 18.1312C149.019 18.5703 148.886 18.9724 148.748 19.3375C148.605 19.6973 148.404 20.0094 148.144 20.2687C147.884 20.5279 147.55 20.7289 147.147 20.8718C146.744 21.0146 146.213 21.0834 145.545 21.0834H144.58L149.469 7.17424C149.607 6.73512 149.777 6.33302 149.968 5.96797C150.159 5.6082 150.392 5.29605 150.663 5.03681C150.933 4.77757 151.262 4.57652 151.644 4.43367C152.025 4.29612 152.497 4.22205 153.06 4.22205H154.958L153.781 18.1312L153.786 18.1259Z" fill="#A3A3A3"/>
<path d="M163.353 18.1258C163.13 19.1681 162.738 19.9247 162.175 20.385C161.613 20.8453 160.807 21.078 159.763 21.078H159.158L159.37 20.0569C159.089 20.4379 158.76 20.7024 158.389 20.8558C158.018 21.004 157.62 21.0833 157.196 21.0833H154.359L157.318 7.17416C157.541 6.1319 157.933 5.38062 158.495 4.91504C159.057 4.45476 159.863 4.22197 160.908 4.22197H161.513L158.527 18.2528C158.426 18.6761 158.596 18.8824 159.041 18.8824C159.322 18.8824 159.503 18.8136 159.582 18.6708C159.662 18.5332 159.726 18.3904 159.763 18.2475L162.117 7.16887C162.34 6.12661 162.732 5.37533 163.294 4.90975C163.857 4.44946 164.663 4.21667 165.707 4.21667H166.312L163.353 18.1258Z" fill="#A3A3A3"/>
<path d="M175.306 9.27456C175.205 9.69781 175.072 10.0893 174.913 10.4491C174.754 10.8089 174.537 11.1263 174.266 11.3961C173.996 11.6659 173.651 11.8776 173.243 12.0257C172.829 12.1791 172.32 12.2426 171.721 12.2215L171.689 12.4331H174.648L173.439 18.1206C173.216 19.1628 172.824 19.9194 172.262 20.3797C171.7 20.84 170.894 21.0728 169.849 21.0728H164.445L165.14 17.819C165.363 16.7767 165.755 16.0255 166.317 15.5599C166.879 15.0996 167.685 14.8668 168.73 14.8668H169.335L168.582 18.3269C168.539 18.4856 168.571 18.6179 168.672 18.7184C168.773 18.8189 168.921 18.8665 169.123 18.8665C169.165 18.8665 169.271 18.8401 169.457 18.7925C169.637 18.7449 169.759 18.5861 169.817 18.3269L170.602 14.7134C170.623 14.5758 170.644 14.433 170.676 14.2901C170.708 14.1526 170.698 14.0203 170.644 13.8986C170.591 13.7769 170.496 13.6764 170.342 13.597C170.188 13.5177 169.955 13.4754 169.632 13.4754H168.423L168.873 11.2797H170.082C170.385 11.2797 170.629 11.2321 170.819 11.1263C171.01 11.0258 171.154 10.9094 171.26 10.7824C171.36 10.6501 171.435 10.5126 171.488 10.3591C171.535 10.211 171.573 10.0735 171.594 9.95177L172.23 6.97312C172.273 6.75091 172.23 6.60277 172.108 6.52341C171.986 6.44405 171.875 6.40173 171.779 6.40173C171.62 6.40173 171.456 6.45463 171.297 6.56574C171.138 6.67684 171.037 6.80911 170.994 6.97312L170.963 7.12126C170.74 8.16352 170.348 8.92008 169.785 9.38037C169.223 9.84066 168.428 10.0735 167.399 10.0735H166.795L167.399 7.153C167.622 6.11074 168.014 5.35946 168.576 4.89388C169.138 4.4336 169.944 4.20081 170.989 4.20081H176.393L175.306 9.25869V9.27456Z" fill="#A3A3A3"/>
<path d="M177.718 7.16362C177.941 6.12136 178.334 5.37008 178.896 4.9045C179.458 4.44422 180.264 4.21143 181.309 4.21143H181.913L180.375 11.4967H180.524L182.215 7.16362C182.396 6.72449 182.576 6.3224 182.756 5.95735C182.937 5.59229 183.165 5.28543 183.435 5.02619C183.706 4.76695 184.029 4.5659 184.4 4.42305C184.771 4.28549 185.238 4.21143 185.806 4.21143H187.015L183.483 12.3379L183.637 18.1206C183.658 18.9459 183.377 19.6496 182.793 20.2422C182.21 20.8347 181.346 21.1098 180.2 21.0675H180.02L180.174 13.1209H180.02L178.965 18.1206C178.742 19.1629 178.35 19.9194 177.787 20.3797C177.225 20.84 176.419 21.0728 175.375 21.0728H174.77L177.729 7.16362H177.718Z" fill="#A3A3A3"/>
<path d="M187.858 7.16362C188.081 6.12136 188.473 5.37008 189.035 4.9045C189.597 4.44422 190.403 4.21143 191.448 4.21143H196.852L193.893 18.1206C193.67 19.1629 193.278 19.9194 192.716 20.3797C192.153 20.84 191.347 21.0728 190.303 21.0728H184.899L187.858 7.16362ZM189.067 18.274C189.009 18.5756 189.067 18.7502 189.231 18.8031C189.396 18.856 189.518 18.8772 189.576 18.8772C189.634 18.8772 189.756 18.8454 189.937 18.7872C190.117 18.729 190.239 18.5544 190.297 18.274L192.684 7.04723C192.726 6.84618 192.7 6.69275 192.609 6.58165C192.519 6.47054 192.392 6.41764 192.233 6.41764C192.074 6.41764 191.909 6.46525 191.75 6.56577C191.591 6.6663 191.491 6.82502 191.448 7.04723L189.062 18.274H189.067Z" fill="#A3A3A3"/>

<!-- .Склад appended after ПроксиТерм -->
<text x="302" y="72"
  font-family="Arial, 'Arial Black', Helvetica, sans-serif"
  font-size="38"
  font-weight="700"
  fill="#666666">.Склад</text>
</g>
<defs>
<clipPath id="clip0_302_2">
<rect width="430" height="84" fill="white"/>
</clipPath>
</defs>
</svg>
